<svg xmlns="http://www.w3.org/2000/svg" width="664" height="519.438" viewBox="0 0 664 519.438"><defs><style>.a,.e{fill:#75141e;}.a,.g,.h,.o{opacity:0.1;}.b,.o{fill:#6c63ff;}.c{fill:#d5d6db;}.d{fill:#f9d20d;}.f,.h,.n{fill:#535353;}.f{opacity:0.22;}.i,.k{fill:#fff;}.i{opacity:0.3;}.j{fill:#bf424f;}.k{opacity:0.45;}.l{fill:#ac434e;}.m{fill:#480910;}.p{fill:#f2c30a;}.q{fill:#ffd037;}.r{fill:#65617d;}.s{fill:#9d9cb5;}</style></defs><g transform="translate(24.463 30.309)"><path class="a" d="M350.4,66.537c-38.663-1.344-75.491-13.821-110.653-27.474S169.755,10.28,132.018,3.047c-24.272-4.653-52.032-5.31-71.584,7.7C41.61,23.289,35.529,44.88,32.261,64.936,29.8,80.023,28.354,95.9,35.1,110.024c4.678,9.807,12.987,18.049,18.728,27.474,19.994,32.683,5.866,72.986-15.8,104.9C27.87,257.371,16.072,271.664,8.234,287.587s-11.47,34.194-4.612,50.451c6.8,16.126,23.011,28.215,40.562,36.726C79.843,392.055,121.845,397,162.831,399.8c90.7,6.206,181.879,3.518,272.819.83,33.657-1,67.457-2.007,100.564-7.209,18.387-2.891,37.366-7.472,50.718-18.545,16.942-14.054,21.141-37.855,9.791-55.474-19.051-29.559-71.686-36.9-85.02-68.626-7.324-17.458.2-36.905,10.848-53.1,22.844-34.737,61.13-65.216,63.149-104.922,1.386-27.277-17.025-54.585-45.485-67.492-29.827-13.576-71.2-11.856-93.2,10.536C424.354,58.868,384.532,67.72,350.4,66.537Z" transform="matrix(0.985, 0.174, -0.174, 0.985, 45.619, -30.309)"/><path class="b" d="M283.949,572.734l-204.472-1L59.16,524.092,131,518.878,118.48,466.641l142.094-18.414L124.508,400.935l12.019-2.855,218.792,35.687L343.27,515.288l-17.223,44.8Z" transform="translate(-25.77 -156.872)"/><path class="b" d="M187,698.709s12.545-2.007,20.072,6.857c0,0-5.52,4.348-17.4-1.672Z" transform="translate(-130.157 -303.799)"/><path class="b" d="M181.326,698.51s-8,9.849-4.062,20.815c0,0,6.523-2.61,7.234-15.905Z" transform="translate(-125.798 -303.797)"/><path class="b" d="M172.76,669.252s5.018-9.2,25.09,3.679c0,0-2.676,6.188-11.541,5.686S175.1,674.1,172.76,669.252Z" transform="translate(-124.424 -290.732)"/><path class="b" d="M162.892,670.283s-10.412-1.195-11.422,22.637c0,0,6.6,1.368,11.291-6.17S165.526,674.984,162.892,670.283Z" transform="translate(-115.852 -292.426)"/><path class="c" d="M634.342,670.36s-13.543,16.526-2.79,41.51L523.426,758.756l-10.377,2.174-4.779-20.9,3.2-26.381V699.226Z" transform="translate(-259.506 -292.461)"/><g transform="translate(-1.952 14.293)"><path class="d" d="M221.893,218.933s14.636-16.538,22.545-16.5c0,0-11.553,22.1-23.149,21.9Z" transform="translate(-142.011 -118.304)"/><path class="d" d="M229.368,177.171l14.14-34.451s.7,31.142-15.938,40.841Z" transform="translate(-144.54 -94.258)"/><path class="d" d="M240.126,115.812s2.342-28.771.836-31.112c0,0,10.108,23.921-.932,43.822Z" transform="translate(-149.556 -70.891)"/><g transform="translate(0 0)"><path class="d" d="M160.44,632.508s5.854-16.222,27.1-4.683c0,0-4.851,14.884-24.923,10.2Z" transform="translate(-117.512 -287.955)"/><path class="d" d="M149.52,592.7s11.04-16.389,30.61-1.195c0,0-6.858,15.386-28.937,7.024Z" transform="translate(-113.115 -272.397)"/><path class="d" d="M145.6,554.708s12.88-15.057,32.259,0c0,0-12.211,13.212-32.259,3.846Z" transform="translate(-111.537 -257.482)"/><path class="d" d="M142.24,516.807s13.047-15.72,31.614-.836c0,0-14.72,13.881-31.614,4.515Z" transform="translate(-110.184 -241.997)"/><path class="d" d="M144.2,480.758s13.74-20.235,31.112-6.522c0,0-14.72,17.393-31.112,10.369Z" transform="translate(-110.974 -225.849)"/><path class="d" d="M149.52,442.379s14.552-20.068,31.446-4.683c0,0-17.229,17.393-31.446,8.362Z" transform="translate(-113.115 -210.716)"/><path class="d" d="M157.133,405.816s17.229-18.862,32.259-11.348c0,0-17.951,20.032-33.011,16.353Z" transform="translate(-115.877 -194.932)"/><path class="d" d="M166.77,370.242s19.881-23.1,31.446-15.386c0,0-14.648,17.918-32.856,19.71Z" transform="translate(-119.493 -179.056)"/><path class="d" d="M180.7,333.366s17.4-18.862,30.114-14.179c0,0-14.887,19.567-32.45,20.068Z" transform="translate(-124.727 -165.025)"/><path class="d" d="M194.876,297.361s19.236-18.061,27.6-14.884c0,0-13.883,20.068-28.435,18.9Z" transform="translate(-131.04 -150.391)"/><path class="d" d="M208.32,261.125s16.559-21.579,25.6-19.907c0,0-10.042,19.238-25.6,22.1Z" transform="translate(-136.789 -133.888)"/><path class="d" d="M143.242,636.581s-14.66-9.085-24.152,13.14c0,0,13.047,8.66,25.879-7.472Z" transform="translate(-100.864 -292.41)"/><path class="d" d="M130.733,595.362s-17.981-8.2-26.7,15c0,0,13.889,9.556,28.34-9.138Z" transform="translate(-94.8 -275.984)"/><path class="d" d="M122.459,557.018s-12.88-15.057-32.259,0c0,0,12.211,13.212,32.259,3.846Z" transform="translate(-89.232 -258.412)"/><path class="d" d="M120.194,516.807s-13.047-15.72-31.614-.836c0,0,14.72,13.881,31.614,4.515Z" transform="translate(-88.58 -241.997)"/><path class="d" d="M124.625,478.977s-9.152-22.666-29.045-12.919c0,0,10.753,20.1,28.232,16.682Z" transform="translate(-91.398 -223.495)"/><path class="d" d="M131.722,439.012s-9.1-23.061-29.272-12.369c0,0,12.354,21.137,28.376,15.929Z" transform="translate(-94.164 -207.463)"/><path class="d" d="M147.2,396.276s-3.584-25.282-20.311-27.546c0,0,3.548,26.662,18.059,32.1Z" transform="translate(-104.004 -185.279)"/><path class="d" d="M158.167,360.5s-1.4-30.461-15.227-31.524c0,0,.466,23.12,13.668,35.836Z" transform="translate(-110.466 -169.27)"/><path class="d" d="M172.994,322.834s-4.122-25.33-17.324-28.424c0,0,1.637,24.53,16.016,34.642Z" transform="translate(-115.592 -155.348)"/><path class="d" d="M191.758,287.594s-.137-26.387-8.2-30.264c0,0-5,23.891,5.866,33.632Z" transform="translate(-126.357 -140.414)"/><path class="d" d="M202.738,253.208s-1.129-27.17-9.48-31c0,0-2.855,21.5,8.232,32.778Z" transform="translate(-130.592 -126.27)"/><path class="d" d="M218.887,215.293s-.048-22.1-6.01-27.283c0,0-5.926,24.207,2.9,31.727Z" transform="translate(-137.84 -112.497)"/><path class="d" d="M224.007,173.78l-5.8-36.78s-7.88,30.138,6.075,43.422Z" transform="translate(-139.877 -91.954)"/><path class="d" d="M221.469,118.844S206.582,94.117,206.887,91.37c0,0,1.583,25.916,20.311,38.823Z" transform="translate(-136.211 -73.577)"/><path class="d" d="M220.467,99.542S206.416,64.423,200.06,61.58c0,0,20.072,10.2,21.577,36.959Z" transform="translate(-133.464 -61.58)"/><path class="d" d="M220.522,191.894l-.962-.293c11.858-38.661,14.815-63.311,8.333-69.492l.687-.729C235.456,127.9,232.667,152.283,220.522,191.894Z" transform="translate(-141.315 -85.663)"/><path class="d" d="M165.552,328.057l-1.422-.508c1.26-3.542,2.617-7.137,4.038-10.679,12.378-30.843,22.916-59.536,29.672-81.563l1.237-.6c-6.768,22.069-17.121,51.861-29.511,82.746C168.15,320.932,166.8,324.51,165.552,328.057Z" transform="translate(-118.998 -131.305)"/><path class="d" d="M185.692,601.532c-.191-.209-19.409-21.848-32.808-58.789a217.478,217.478,0,0,1-12.945-67.36c-.92-28.747,5.114-60.844,15.448-90l1.123,1.314c-23.2,65.443-13.985,121.521-1.756,155.29,13.256,36.607,32.259,58.007,32.444,58.222Z" transform="translate(-109.221 -191.984)"/><path class="d" d="M59.16,590.667,208.816,563.39l198.3,31.584L283.949,639.309Z" transform="translate(-23.819 -237.741)"/></g></g><path class="e" d="M59.16,590.667,208.816,563.39l198.3,31.584L283.949,639.309Z" transform="translate(-25.77 -223.447)"/><path class="e" d="M143.943,652.47s-14,26.513,2.133,51L368,751.551s-13.776-21.12.711-50.433Z" transform="translate(-110.553 -285.256)"/><path class="f" d="M143.943,652.47s-14,26.513,2.133,51L368,751.551s-13.776-21.12.711-50.433Z" transform="translate(-111.999 -285.256)"/><path class="g" d="M156.414,667.86s-8,19.4,0,31.954" transform="translate(-116.411 -291.454)"/><path class="e" d="M373.238,782.718l123.9-52.858s6.93,1.493,2.449,6.57S375.627,787.8,375.627,787.8L151.31,734.638Z" transform="translate(-115.788 -316.423)"/><path class="h" d="M373.238,782.718l123.9-52.858s6.93,1.493,2.449,6.57S375.627,787.8,375.627,787.8L151.31,734.638Z" transform="translate(-115.788 -316.423)"/><path class="g" d="M502.231,742.86s-11.948,14.334,0,35.836" transform="translate(-254.937 -321.659)"/><rect class="g" width="56.493" height="0.6" transform="translate(251.548 438.834) rotate(-18.45)"/><rect class="g" width="68.835" height="0.602" transform="translate(251.528 443.643) rotate(-20.82)"/><rect class="g" width="79.784" height="0.603" transform="translate(251.888 449.311) rotate(-22.26)"/><rect class="g" width="91.839" height="0.604" transform="translate(252.749 454.309) rotate(-24.31)"/><rect class="g" width="100.447" height="0.604" transform="matrix(0.916, -0.401, 0.401, 0.916, 253.413, 456.741)"/><rect class="g" width="120.202" height="0.606" transform="translate(254.802 460.826) rotate(-23.36)"/><path class="i" d="M152.23,599.039l105.139-22.1,64.051,12.244-86.155,27.773Z" transform="translate(-63.242 -228.904)"/><path class="e" d="M647.187,659.69s5.436,2.192,2.246,5.578S524,704.025,524,704.025Z" transform="translate(-265.839 -288.164)"/><path class="c" d="M733.636,574.18S720.1,590.7,730.852,615.69L622.726,662.576l-10.377,2.186-4.779-20.9,3.244-26.375V603.046Z" transform="translate(-299.486 -253.726)"/><path class="j" d="M158.46,494.481,308.11,467.21l198.307,31.584L383.249,543.129Z" transform="translate(-65.75 -184.713)"/><path class="j" d="M243.2,556.29s-14,26.513,2.127,51l221.928,48.08s-13.77-21.137.735-50.439Z" transform="translate(-150.514 -246.521)"/><path class="g" d="M243.2,556.29s-14,26.513,2.127,51l221.928,48.08s-13.77-21.137.735-50.439l-70.181-15.189Z" transform="translate(-150.514 -241.323)"/><path class="g" d="M255.706,571.68s-7.993,19.393,0,31.954" transform="translate(-156.389 -252.719)"/><path class="j" d="M472.528,686.539l123.9-52.858s6.924,1.493,2.443,6.57-123.957,51.365-123.957,51.365L250.6,638.458Z" transform="translate(-155.764 -277.689)"/><path class="a" d="M472.528,686.539l123.9-52.858s6.924,1.493,2.443,6.57c-1.362,1.543-13.682,7.267-29.957,14.072-36.453,15.242-94,37.293-94,37.293L250.6,638.458Z" transform="translate(-155.764 -277.366)"/><path class="g" d="M601.521,646.68s-11.948,14.335,0,35.836" transform="translate(-294.912 -282.924)"/><rect class="g" width="56.493" height="0.6" transform="translate(310.867 381.395) rotate(-18.45)"/><rect class="g" width="68.835" height="0.602" transform="translate(310.854 386.201) rotate(-20.82)"/><rect class="g" width="79.784" height="0.603" transform="translate(311.205 391.861) rotate(-22.26)"/><rect class="g" width="91.839" height="0.604" transform="translate(312.073 396.86) rotate(-24.31)"/><rect class="g" width="100.447" height="0.604" transform="matrix(0.916, -0.401, 0.401, 0.916, 312.729, 399.285)"/><rect class="g" width="120.202" height="0.606" transform="translate(314.122 403.369) rotate(-23.36)"/><path class="k" d="M251.53,502.859l105.139-22.1L420.721,493l-86.155,27.773Z" transform="translate(-103.222 -190.17)"/><path class="l" d="M746.5,563.51s5.43,2.192,2.246,5.572S623.33,607.839,623.33,607.839Z" transform="translate(-305.831 -249.429)"/><path class="c" d="M743.048,464.15s-13.543,29.667-2.79,54.65L632.132,552.546l-10.353,2.192L617,533.833l3.2-26.381V493.016Z" transform="translate(-303.282 -209.414)"/><path class="e" d="M167.89,384.457,317.546,357.18l198.307,31.584L392.679,433.1Z" transform="translate(-69.547 -140.4)"/><path class="m" d="M252.662,446.26s-14.021,26.513,2.109,51L476.7,545.341s-13.776-21.137.729-50.434Z" transform="translate(-154.319 -202.209)"/><path class="h" d="M252.662,446.26s-14.021,26.513,2.109,51L476.7,545.341s-13.776-21.137.729-50.434Z" transform="translate(-154.916 -203.403)"/><path class="g" d="M265.144,461.65s-8,19.4,0,31.954" transform="translate(-160.188 -208.407)"/><path class="e" d="M481.968,579.73l123.9-39.718s6.93,1.493,2.449,6.57-123.957,38.225-123.957,38.225L260.04,531.65Z" transform="translate(-159.564 -236.598)"/><path class="g" d="M481.968,579.73l123.9-39.718s6.93,1.493,2.449,6.57-123.957,38.225-123.957,38.225L260.04,531.65Z" transform="translate(-159.564 -236.598)"/><path class="g" d="M610.961,536.65s-11.948,14.335,0,35.836" transform="translate(-298.713 -238.612)"/><rect class="g" width="56.493" height="0.6" transform="translate(316.508 315.676) rotate(-18.45)"/><rect class="g" width="68.835" height="0.602" transform="translate(316.491 320.485) rotate(-20.82)"/><rect class="g" width="79.784" height="0.603" transform="translate(316.836 326.148) rotate(-22.26)"/><rect class="g" width="91.839" height="0.604" transform="translate(317.713 331.142) rotate(-24.31)"/><rect class="g" width="100.447" height="0.604" transform="matrix(0.916, -0.401, 0.401, 0.916, 318.371, 333.572)"/><rect class="g" width="120.202" height="0.606" transform="translate(319.763 337.661) rotate(-23.36)"/><path class="i" d="M260.96,392.829,366.1,370.73l64.051,12.244L344,410.747Z" transform="translate(-107.018 -145.857)"/><path class="n" d="M755.929,453.48s5.436,2.192,2.246,5.579S632.76,497.815,632.76,497.815Z" transform="translate(-309.628 -205.117)"/><path class="e" d="M385.343,149.9s-22.7-1.368-20.048,14.555a3.884,3.884,0,0,0,2.019,4.091s.042-1.195,2.33-.782a10.188,10.188,0,0,0,2.473.119,5.15,5.15,0,0,0,3.017-1.242h0S381.52,164,384,153.561c0,0,1.84-2.276,1.792-2.861l-3.847,1.636s1.308,2.765.281,5.065c0,0-.125-4.963-.866-4.85-.149,0-1.989.962-1.989.962s2.252,4.82.55,8.32c0,0,.645-5.937-1.254-7.974l-2.7,1.577s2.634,4.975.848,9.037c0,0,.46-6.23-1.416-8.654l-2.449,1.911s2.479,4.9.968,8.272c0,0-.2-7.251-1.493-7.8a14.762,14.762,0,0,0-2.467,2.664s1.7,3.584.639,5.441c0,0-.639-4.832-1.195-4.856,0,0-2.133,3.2-2.354,5.375a11.621,11.621,0,0,1,1.834-5.7,6.4,6.4,0,0,0-3.262,1.69s.329-2.264,3.793-2.461a14.68,14.68,0,0,1,2.234-2.574,13.987,13.987,0,0,0-5.532.633s1.84-2.132,6.159-1.195l2.39-1.971s-4.528-.6-6.452.066c0,0,2.216-1.887,7.1-.514l2.634-1.571a23.943,23.943,0,0,0-6.165-.532s2.425-1.308,6.936.107l1.876-.842s-2.826-.555-3.656-.645-.872-.317-.872-.317a9.865,9.865,0,0,1,5.317.6S385.421,150.151,385.343,149.9Z" transform="translate(-201.855 -82.844)"/><path class="a" d="M919.943,259.48s-22.7-1.368-20.048,14.556a3.884,3.884,0,0,0,2.019,4.091s.042-1.195,2.33-.782a10.528,10.528,0,0,0,2.473.119,5.132,5.132,0,0,0,2.987-1.242h0s6.392-2.64,8.871-13.08c0,0,1.84-2.276,1.792-2.861l-3.835,1.637s1.308,2.765.281,5.065c0,0-.125-4.963-.86-4.85-.149,0-2,.962-2,.962s2.252,4.82.556,8.32c0,0,.645-5.937-1.26-7.974l-2.7,1.577s2.635,4.975.848,9.037c0,0,.46-6.23-1.416-8.654l-2.443,1.911s2.473,4.9.962,8.272c0,0-.2-7.251-1.493-7.8a14.98,14.98,0,0,0-2.467,2.664s1.7,3.584.645,5.441c0,0-.645-4.832-1.195-4.856,0,0-2.133,3.2-2.354,5.375a11.584,11.584,0,0,1,1.84-5.7,6.426,6.426,0,0,0-3.268,1.69s.334-2.264,3.793-2.461a14.913,14.913,0,0,1,2.234-2.58,14.044,14.044,0,0,0-5.532.639s1.84-2.132,6.159-1.195l2.39-1.971s-4.534-.6-6.452.066c0,0,2.21-1.887,7.1-.514l2.628-1.571a23.942,23.942,0,0,0-6.165-.532s2.425-1.308,6.936.108l1.882-.842s-2.832-.555-3.662-.645-.872-.317-.872-.317a9.793,9.793,0,0,1,5.317.6S920.015,259.731,919.943,259.48Z" transform="translate(-417.094 -126.975)"/><path class="a" d="M446.1,305.721s-9.893-20.5-22.486-10.4a3.879,3.879,0,0,0-2.587,3.757s1.045-.543,1.792,1.654a10.584,10.584,0,0,0,1.1,2.21,5.155,5.155,0,0,0,2.563,2.031h0s5.418,4.288,15.747,1.362c0,0,2.885.5,3.357.149l-3.3-2.55s-1.792,2.491-4.289,2.712c0,0,4.277-2.526,3.817-3.112-.1-.119-1.792-1.272-1.792-1.272s-3.112,4.318-7,4.539c0,0,5.5-2.329,6.344-4.987l-2.688-1.589s-3.065,4.73-7.479,5.148c0,0,5.663-2.634,6.864-5.453l-2.855-1.195s-3.077,4.551-6.756,4.88c0,0,6.237-3.709,6.081-5.113a15.144,15.144,0,0,0-3.53-.854s-2.282,3.219-4.433,3.219c0,0,3.9-2.921,3.662-3.392,0,0-3.835-.3-5.854.6a11.632,11.632,0,0,1,5.872-1.195,6.435,6.435,0,0,0-3.071-2.025s2.139-.812,4,2.108a14.739,14.739,0,0,1,3.339.693,14.022,14.022,0,0,0-3.25-4.509s2.76.556,4.02,4.778l2.9,1.147s-1.667-4.253-3.2-5.6c0,0,2.724,1.009,3.913,5.973l2.652,1.529a23.633,23.633,0,0,0-2.539-5.638s2.324,1.481,3.286,6.1l1.655,1.23s-.9-2.741-1.195-3.506-.149-.92-.149-.92a9.8,9.8,0,0,1,2.079,4.927S445.884,305.9,446.1,305.721Z" transform="translate(-224.378 -140.294)"/><path class="a" d="M829.879,202.1s-9.887-20.5-22.486-10.4a3.887,3.887,0,0,0-2.587,3.757s1.051-.538,1.792,1.654a10.359,10.359,0,0,0,1.105,2.216,5.126,5.126,0,0,0,2.557,2.025h0s5.424,4.288,15.747,1.368c0,0,2.885.49,3.363.143l-3.28-2.556s-1.792,2.5-4.283,2.718c0,0,4.271-2.532,3.811-3.118-.1-.119-1.792-1.272-1.792-1.272s-3.106,4.318-7,4.539c0,0,5.5-2.329,6.35-4.981l-2.73-1.577s-3.059,4.724-7.479,5.148c0,0,5.663-2.64,6.87-5.459l-2.861-1.195s-3.076,4.557-6.75,4.88c0,0,6.231-3.709,6.075-5.107a14.779,14.779,0,0,0-3.525-.854s-2.282,3.213-4.439,3.213c0,0,3.907-2.921,3.668-3.392,0,0-3.835-.3-5.86.6a11.627,11.627,0,0,1,5.872-1.195,6.4,6.4,0,0,0-3.065-2.025s2.139-.812,4,2.108a14.788,14.788,0,0,1,3.339.7,13.975,13.975,0,0,0-3.256-4.515s2.76.561,4.021,4.808l2.9,1.147s-1.667-4.258-3.2-5.6c0,0,2.724,1.009,3.907,5.973l2.658,1.529a23.852,23.852,0,0,0-2.545-5.638s2.33,1.481,3.286,6.1l1.655,1.23s-.89-2.741-1.195-3.506-.149-.914-.149-.914a9.824,9.824,0,0,1,2.073,4.927S829.694,202.292,829.879,202.1Z" transform="translate(-378.895 -98.563)"/><path class="a" d="M882.757,371.907s-9.887-20.51-22.5-10.4a3.887,3.887,0,0,0-2.587,3.757s1.051-.538,1.792,1.654a10.347,10.347,0,0,0,1.1,2.216,5.126,5.126,0,0,0,2.557,2.025h0s5.424,4.294,15.753,1.368c0,0,2.879.5,3.357.143l-3.3-2.55s-1.792,2.5-4.289,2.717c0,0,4.271-2.532,3.811-3.118-.1-.12-1.792-1.272-1.792-1.272s-3.106,4.318-7,4.545c0,0,5.5-2.335,6.35-4.987l-2.694-1.589s-3.058,4.73-7.479,5.148c0,0,5.663-2.64,6.87-5.459l-2.862-1.195s-3.077,4.551-6.75,4.88c0,0,6.237-3.709,6.081-5.113a14.841,14.841,0,0,0-3.531-.854s-2.282,3.213-4.439,3.213c0,0,3.907-2.921,3.668-3.392,0,0-3.835-.3-5.86.6a11.663,11.663,0,0,1,5.878-1.195,6.387,6.387,0,0,0-3.071-2.025s2.139-.818,4,2.108a14.74,14.74,0,0,1,3.339.693,14.084,14.084,0,0,0-3.25-4.515s2.76.561,4.02,4.808l2.9,1.147s-1.667-4.259-3.2-5.6c0,0,2.724,1,3.907,5.973l2.658,1.523a23.844,23.844,0,0,0-2.545-5.638s2.33,1.481,3.292,6.11l1.655,1.194s-.9-2.741-1.195-3.506-.149-.914-.149-.914a9.764,9.764,0,0,1,2.073,4.927S882.572,372.086,882.757,371.907Z" transform="translate(-400.177 -166.947)"/><ellipse class="o" cx="13.734" cy="1.535" rx="13.734" ry="1.535" transform="translate(173.584 486.059)"/><path class="e" d="M681.543,790.14s-22.617,11.683-10.932,25.444a4.371,4.371,0,0,0,4.277,2.777s-.633-1.159,1.792-2.084a11.664,11.664,0,0,0,2.443-1.3,5.741,5.741,0,0,0,2.186-2.921h0s4.624-6.188,1.039-17.638c0,0,.466-3.237.06-3.763l-2.748,3.769s2.838,1.905,3.166,4.706c0,0-2.987-4.7-3.584-4.181-.131.107-1.362,2.061-1.362,2.061s4.922,3.339,5.287,7.675c0,0-2.772-6.074-5.765-6.94l-1.715,3.058s5.376,3.273,5.974,8.195c0,0-3.124-6.241-6.314-7.5l-1.26,3.231s5.185,3.3,5.663,7.394c0,0-4.337-6.851-5.9-6.636a16.555,16.555,0,0,0-.848,3.972s3.662,2.449,3.728,4.856c0,0-3.381-4.27-3.9-3.99,0,0-.215,4.294.824,6.528a12.885,12.885,0,0,1-1.5-6.528,7.167,7.167,0,0,0-2.168,3.488s-.974-2.359,2.234-4.533c0,0,.3-3.339.675-3.751,0,0-3.471,1.7-4.946,3.775,0,0,.544-3.1,5.251-4.641l1.195-3.273s-4.707,1.995-6.159,3.751c0,0,1.045-3.076,6.529-4.551l1.625-2.986a27.438,27.438,0,0,0-6.225,2.986s1.583-2.646,6.727-3.864l1.32-1.881s-3.035,1.081-3.883,1.469-1.016.2-1.016.2a10.987,10.987,0,0,1,5.442-2.473S681.752,790.343,681.543,790.14Z" transform="translate(-323.517 -340.7)"/><path class="g" d="M650.52,455.074a45.732,45.732,0,0,1,6.858-4.259,111.9,111.9,0,0,0,10.156-6.206" transform="translate(-316.778 -201.544)"/><path class="p" d="M1031.43,661.63s3.542,4.629-1.637,11.623-9.445,12.9-7.724,17.255c0,0,7.814-12.985,14.17-13.17S1038.413,669.436,1031.43,661.63Z" transform="translate(-466.214 -288.945)"/><path class="g" d="M1031.566,661.63a5.734,5.734,0,0,1,.723,1.451c6.2,7.287,9.51,14.09,3.543,14.257-5.556.161-12.217,10.094-13.812,12.6a5.837,5.837,0,0,0,.185.6s7.814-12.985,14.17-13.17S1038.55,669.436,1031.566,661.63Z" transform="translate(-466.35 -288.945)"/><path class="q" d="M1048.448,670.807c0,1.631-.185,2.951-.406,2.951s-.412-1.32-.412-2.951.227-.86.454-.86S1048.448,669.177,1048.448,670.807Z" transform="translate(-476.661 -292.221)"/><path class="q" d="M1050.909,674c-1.428.776-2.676,1.248-2.784,1.051s.962-.992,2.39-1.792.866-.215.974,0S1052.343,673.213,1050.909,674Z" transform="translate(-476.858 -293.462)"/><path class="p" d="M1001.305,661.63s-3.542,4.629,1.637,11.623,9.445,12.9,7.718,17.255c0,0-7.808-12.985-14.17-13.17S994.34,669.436,1001.305,661.63Z" transform="translate(-454.811 -288.945)"/><path class="g" d="M1001.305,661.63a5.728,5.728,0,0,0-.723,1.451c-6.2,7.287-9.51,14.09-3.543,14.257,5.55.161,12.216,10.094,13.812,12.6a4.631,4.631,0,0,1-.191.6s-7.808-12.985-14.17-13.17S994.34,669.436,1001.305,661.63Z" transform="translate(-454.811 -288.945)"/><path class="q" d="M995.64,670.807c0,1.631.179,2.951.406,2.951s.412-1.32.412-2.951-.233-.86-.454-.86S995.64,669.177,995.64,670.807Z" transform="translate(-455.729 -292.221)"/><path class="q" d="M991.274,674c1.428.776,2.676,1.248,2.784,1.051s-.962-.992-2.39-1.792-.866-.215-.974,0S989.84,673.213,991.274,674Z" transform="translate(-453.621 -293.462)"/><path class="r" d="M1028.536,698.072l-.179,1.445-.251,2.043-.1.854-.251,2.043-.108.854-.245,2.037-2.837,23.234c-.251,2.072-3.638,3.691-7.73,3.691h-14.725c-4.092,0-7.473-1.619-7.73-3.691l-2.838-23.234-.251-2.037-.1-.854-.251-2.043-.107-.854-.245-2.043-.179-1.445c-.137-1.195,1.69-2.162,4.008-2.162h30.12C1026.846,695.91,1028.68,696.9,1028.536,698.072Z" transform="translate(-453.619 -302.75)"/><path class="s" d="M939.9,658.53l-.245,2.043H902.381l-.251-2.043Z" transform="translate(-365.164 -261.763)"/><path class="s" d="M939.788,663.38l-.245,2.043H902.971l-.251-2.043Z" transform="translate(-365.402 -263.716)"/><path class="s" d="M939.677,668.23l-.251,2.043H903.565l-.245-2.043Z" transform="translate(-365.643 -265.669)"/></g></svg>